<svg width="54" height="54" viewBox="0 0 54 54" fill="none" xmlns="http://www.w3.org/2000/svg">
<circle cx="27" cy="27" r="26.5" stroke="#647FFF"/>
<path d="M30.9543 21C31.0378 20.9998 31.1205 21.0162 31.1976 21.0481C31.2747 21.0799 31.3447 21.1268 31.4037 21.1859L36.9889 26.7711C37.1076 26.8906 37.1742 27.0521 37.1742 27.2205C37.1742 27.3888 37.1076 27.5504 36.9889 27.6698L31.4037 33.2551C31.2845 33.3743 31.1229 33.4412 30.9543 33.4412C30.7858 33.4412 30.6241 33.3743 30.505 33.2551C30.3858 33.1359 30.3188 32.9743 30.3188 32.8057C30.3188 32.6372 30.3858 32.4755 30.505 32.3564L35.6409 27.2205L30.505 22.0846C30.4161 21.9957 30.3555 21.8825 30.331 21.7593C30.3064 21.636 30.319 21.5082 30.3671 21.3921C30.4152 21.276 30.4967 21.1767 30.6012 21.1069C30.7058 21.0371 30.8286 20.9999 30.9543 21Z" fill="#ffffff"/>
<path d="M16.6352 26.5853H35.7436C35.9121 26.5853 36.0737 26.6522 36.1928 26.7714C36.3119 26.8905 36.3789 27.0521 36.3789 27.2205C36.3789 27.389 36.3119 27.5506 36.1928 27.6697C36.0737 27.7888 35.9121 27.8558 35.7436 27.8558H16.6352C16.4668 27.8558 16.3052 27.7888 16.1861 27.6697C16.0669 27.5506 16 27.389 16 27.2205C16 27.0521 16.0669 26.8905 16.1861 26.7714C16.3052 26.6522 16.4668 26.5853 16.6352 26.5853Z" fill="#ffffff"/>
</svg>
