<svg width="23" height="23" viewBox="0 0 23 23" fill="none" xmlns="http://www.w3.org/2000/svg">
<rect x="0.5" y="0.5" width="22" height="22" rx="3.5" stroke="#6C66FF" fill="#00000000"/>
<path d="M19.1827 5.00611C19.018 5.02948 18.8658 5.11286 18.7513 5.24235C18.4663 5.54911 16.2612 7.98751 14.0208 10.4639C11.9917 12.7067 10.2704 14.6119 9.75206 15.1803L5.17297 11.4251C5.09705 11.3615 5.01016 11.3148 4.91733 11.2876C4.8245 11.2604 4.72758 11.2534 4.6322 11.2668C4.53681 11.2803 4.44486 11.314 4.36168 11.366C4.27849 11.418 4.20573 11.4873 4.14761 11.5698C4.08949 11.6523 4.04717 11.7464 4.02311 11.8466C3.99904 11.9469 3.99371 12.0513 4.00742 12.1537C4.02113 12.2562 4.05361 12.3547 4.10298 12.4436C4.15234 12.5325 4.21761 12.6099 4.295 12.6714L9.38119 16.8421C9.5215 16.9561 9.69545 17.0115 9.87081 16.998C10.0462 16.9845 10.211 16.9031 10.3349 16.7688C10.6199 16.4621 12.825 14.0318 15.0653 11.5554C17.3057 9.07906 19.5813 6.55664 19.7806 6.34203C19.8896 6.22763 19.9625 6.07928 19.989 5.9179C20.0154 5.75653 19.9941 5.5903 19.928 5.44267C19.8619 5.29505 19.7544 5.17349 19.6207 5.09515C19.487 5.01682 19.3338 4.98567 19.1827 5.00611Z" fill="#ffffff"/>
</svg>
