<svg width="19" height="10" viewBox="0 0 19 10" fill="none" xmlns="http://www.w3.org/2000/svg">
<path d="M9.5 0C3.66017 0 0 4.31818 0 5C0 5.68182 3.68074 10 9.5 10C15.3398 10 19 5.68182 19 5C19 4.31818 15.3398 0 9.5 0ZM9.5 8.84298C7.32035 8.84298 5.55195 7.1281 5.55195 5C5.55195 2.8719 7.32035 1.15703 9.5 1.15703C11.6797 1.15703 13.4481 2.8719 13.4481 5C13.4481 7.1281 11.6797 8.84298 9.5 8.84298ZM11.4329 5C11.4329 6.07438 10.5693 6.94215 9.5 6.94215C8.43074 6.94215 7.5671 6.07438 7.5671 5C7.5671 3.92562 8.43074 3.05785 9.5 3.05785C10.5693 3.05785 11.4329 3.92562 11.4329 5Z" fill="white"/>
</svg>
